<svg width="65" height="65" viewBox="0 0 65 65" fill="none" xmlns="http://www.w3.org/2000/svg">
<rect width="65" height="65" fill="#CE161E"/>
<path d="M7.56758 21H4.39297L10.5453 8.77734H14.4828L16.5746 21H13.4L12.0547 11.8535H11.9562L7.56758 21ZM7.95312 16.1848H14.5895L14.2039 18.4324H7.55937L7.95312 16.1848ZM22.5738 8.77734L20.5559 21H17.5945L19.6289 8.77734H22.5738ZM26.6863 21H23.3641L23.7824 18.4816H26.8668C27.5559 18.4816 28.1629 18.3586 28.6879 18.1125C29.2129 17.8609 29.6477 17.459 29.9922 16.9066C30.3422 16.3543 30.591 15.627 30.7387 14.7246C30.8809 13.8715 30.8727 13.1961 30.7141 12.6984C30.5609 12.1953 30.2684 11.8371 29.8363 11.6238C29.4043 11.4051 28.8383 11.2957 28.1383 11.2957H24.9145L25.341 8.77734H28.573C29.8199 8.77734 30.8562 9.02891 31.682 9.53203C32.5133 10.0352 33.1012 10.7543 33.4457 11.6895C33.7902 12.6246 33.8559 13.743 33.6426 15.0445C33.4348 16.2914 33.0191 17.3605 32.3957 18.252C31.7723 19.1379 30.9766 19.8188 30.0086 20.2945C29.0406 20.7648 27.9332 21 26.6863 21ZM27.0801 8.77734L25.0621 21H22.1008L24.1352 8.77734H27.0801ZM36.0816 21H32.907L39.0594 8.77734H42.9969L45.0887 21H41.9141L40.5687 11.8535H40.4703L36.0816 21ZM36.4672 16.1848H43.1035L42.718 18.4324H36.0734L36.4672 16.1848Z" fill="white"/>
</svg>
